# xmcd
#
# Track frame offsets:
#  150
#  20875
#  33665
#  44742
#  58175
#  70547
#  82492
#  97070
#  112065
#  123765
#  137090
#  151082
#
# Disc length: 2192 seconds
#
# Revision: 4
# Processed by: cddbd v1.5.1PL2 Copyright (c) Steve Scherf et al.
# Submitted via: Collectorz.com_Music_Collector 6.11
#
DISCID=b1088e0c
DTITLE=Jesse Fuller - The Lone Cat
DYEAR=1990
DGENRE=Blues
TTITLE0=Leavin' Memphis, Frisco Bound
TTITLE1=Take It Slow And Easy
TTITLE2=The Monkey And The Engineer
TTITLE3=New Corrine
TTITLE4=Guitar Blues
TTITLE5=Runnin' Wild
TTITLE6=Hey, Hey
TTITLE7=Traditional - In That Great Land
TTITLE8=The Way You Treat Me
TTITLE9=Down Home Waltz
TTITLE10=Beat It On Down The Line
TTITLE11=Buck And Wing
EXTD=
EXTT0=
EXTT1=
EXTT2=
EXTT3=
EXTT4=
EXTT5=
EXTT6=
EXTT7=
EXTT8=
EXTT9=
EXTT10=
EXTT11=
PLAYORDER=
